HIERARCHY
ROOT Hips
{
  OFFSET 44.1777 81.3448 -17.6035
  CHANNELS 6 Xposition Yposition Zposition Zrotation Xrotation Yrotation
  JOINT Chest
  {
    OFFSET 1.23234e-007 14.8421 1.27321e-009
    CHANNELS 6 Xposition Yposition Zposition Zrotation Xrotation Yrotation
    JOINT Neck
    {
      OFFSET 0.51659 29.8236 6.51843
      CHANNELS 6 Xposition Yposition Zposition Zrotation Xrotation Yrotation
      JOINT Head
      {
        OFFSET 1.16803e-007 7.47049 6.44171e-007
        CHANNELS 6 Xposition Yposition Zposition Zrotation Xrotation Yrotation
        End Site
        {
          OFFSET -4.32676e-008 16.2908 2.16786e-007
        }
      }
    }
    JOINT LeftCollar
    {
      OFFSET 6.64893 27.3161 3.27471
      CHANNELS 6 Xposition Yposition Zposition Zrotation Xrotation Yrotation
      JOINT LeftUpArm
      {
        OFFSET 10.8584 2.41798 -0.945791
        CHANNELS 6 Xposition Yposition Zposition Zrotation Xrotation Yrotation
        JOINT LeftLowArm
        {
          OFFSET 3.77631 -24.5904 -1.70468
          CHANNELS 6 Xposition Yposition Zposition Zrotation Xrotation Yrotation
          JOINT LeftHand
          {
            OFFSET 1.01026 -21.1231 1.74131
            CHANNELS 6 Xposition Yposition Zposition Zrotation Xrotation Yrotation
            End Site
            {
              OFFSET 1.17583e-006 -9.81266 -2.89439e-008
            }
          }
        }
      }
    }
    JOINT RightCollar
    {
      OFFSET -6.11406 27.2248 4.23427
      CHANNELS 6 Xposition Yposition Zposition Zrotation Xrotation Yrotation
      JOINT RightUpArm
      {
        OFFSET -10.4566 2.3285 -0.910794
        CHANNELS 6 Xposition Yposition Zposition Zrotation Xrotation Yrotation
        JOINT RightLowArm
        {
          OFFSET -3.86856 -25.191 -1.74633
          CHANNELS 6 Xposition Yposition Zposition Zrotation Xrotation Yrotation
          JOINT RightHand
          {
            OFFSET -1.04759 -20.6242 1.75213
            CHANNELS 6 Xposition Yposition Zposition Zrotation Xrotation Yrotation
            End Site
            {
              OFFSET -2.03487e-006 -9.50367 -4.31372e-006
            }
          }
        }
      }
    }
  }
  JOINT LeftUpLeg
  {
    OFFSET 9 -3.38008e-006 -5.23002e-009
    CHANNELS 6 Xposition Yposition Zposition Zrotation Xrotation Yrotation
    JOINT LeftLowLeg
    {
      OFFSET -0.575 -51.431 3.90177
      CHANNELS 6 Xposition Yposition Zposition Zrotation Xrotation Yrotation
      JOINT LeftFoot
      {
        OFFSET 2.13082e-007 -43.5882 -3.90177
        CHANNELS 6 Xposition Yposition Zposition Zrotation Xrotation Yrotation
        End Site
        {
          OFFSET 7.44796e-007 -6.93413 15.0046
        }
      }
    }
  }
  JOINT RightUpLeg
  {
    OFFSET -9 6.86154e-007 -3.19543e-009
    CHANNELS 6 Xposition Yposition Zposition Zrotation Xrotation Yrotation
    JOINT RightLowLeg
    {
      OFFSET 0.575 -51.4311 3.90177
      CHANNELS 6 Xposition Yposition Zposition Zrotation Xrotation Yrotation
      JOINT RightFoot
      {
        OFFSET -7.46079e-007 -43.5882 -3.90177
        CHANNELS 6 Xposition Yposition Zposition Zrotation Xrotation Yrotation
        End Site
        {
          OFFSET 4.66716e-007 -6.93413 15.0046
        }
      }
    }
  }
}
MOTION
Frames:	10
Frame Time:	0.0333333
54.2419 86.4975 -3.43943 4.12315 -2.63182 36.3515 1.23236e-007 14.8421 1.27321e-009 -2.9002 14.3925 -5.67391 0.51659 29.8236 6.51843 9.37535 -16.0763 -15.4805 1.16803e-007 7.47049 6.44171e-007 -3.06512 18.8822 -10.9332 6.64893 27.3161 3.27471 -2.94784 5.93879 -4.20517 10.8584 2.41798 -0.945791 -25.9184 -23.5899 -59.1557 3.77631 -24.5904 -1.70468 29.1963 -14.8626 -25.4991 1.01026 -21.1231 1.74131 17.918 0.229859 1.87219 -6.11406 27.2248 4.23427 -1.96452 7.32629 3.42623 -10.4566 2.3285 -0.910794 -52.2812 -65.6583 -58.3827 -3.86856 -25.191 -1.74633 13.4341 -58.7867 89.7695 -1.04759 -20.6242 1.75213 -45.2906 22.528 2.3298 9 -3.38008e-006 -5.23425e-009 16.0813 -14.6869 22.8719 -0.575 -51.431 3.90177 -0.126504 59.1798 -17.4126 2.13082e-007 -43.5882 -3.90177 11.3717 -21.6892 0.954049 -9 6.86154e-007 -3.19782e-009 -30.4498 -25.4264 -33.6927 0.575 -51.4311 3.90177 -2.12618 49.1168 12.3852 -7.46079e-007 -43.5882 -3.90177 -8.50417 -3.33539 0.563824 
54.1637 86.5372 -3.39469 4.08313 -2.72727 36.203 1.23236e-007 14.8421 1.27321e-009 -2.83482 14.3243 -5.64165 0.51659 29.8236 6.51843 9.11331 -16.1613 -15.3743 1.16803e-007 7.47049 6.44171e-007 -2.92633 18.9269 -10.9363 6.64893 27.3161 3.27471 -2.94784 5.93879 -4.20517 10.8584 2.41798 -0.945791 -26.0006 -23.4961 -58.9665 3.77631 -24.5904 -1.70468 29.3418 -14.8167 -25.508 1.01026 -21.1231 1.74131 17.8349 0.0457109 1.87964 -6.11406 27.2248 4.23427 -1.96452 7.32629 3.42623 -10.4566 2.3285 -0.910794 -51.7201 -65.6422 -57.8261 -3.86856 -25.191 -1.74633 13.4157 -58.7974 89.6339 -1.04759 -20.6242 1.75213 -45.5906 22.5048 2.34784 9 -3.38008e-006 -5.23427e-009 16.1417 -14.5559 22.8442 -0.575 -51.431 3.90177 -0.0253835 59.0315 -17.3793 2.13082e-007 -43.5882 -3.90177 11.3917 -21.7405 0.961116 -9 6.86154e-007 -3.19781e-009 -30.2309 -25.444 -33.5584 0.575 -51.4311 3.90177 -2.0781 49.0786 12.3292 -7.46079e-007 -43.5882 -3.90177 -8.52331 -3.39701 0.561313 
54.0922 86.5756 -3.35094 4.04223 -2.79598 36.0767 1.23236e-007 14.8421 1.27321e-009 -2.85392 14.3163 -5.65236 0.51659 29.8236 6.51843 9.25072 -16.2295 -15.2215 1.16803e-007 7.47049 6.44171e-007 -3.11867 18.6991 -10.7198 6.64893 27.3161 3.27471 -2.94784 5.93879 -4.20517 10.8584 2.41798 -0.945791 -26.0235 -23.4425 -58.9381 3.77631 -24.5904 -1.70468 29.4834 -14.7574 -25.1433 1.01026 -21.1231 1.74131 18.7507 -0.95932 2.09066 -6.11406 27.2248 4.23427 -1.96452 7.32629 3.42623 -10.4566 2.3285 -0.910794 -51.3569 -65.6047 -57.6223 -3.86856 -25.191 -1.74633 13.4914 -58.8413 89.5511 -1.04759 -20.6242 1.75213 -45.7195 22.631 2.40594 9 -3.38008e-006 -5.2343e-009 16.1385 -14.4835 22.7227 -0.575 -51.431 3.90177 0.141872 58.9074 -17.264 2.13082e-007 -43.5882 -3.90177 11.3867 -21.7625 0.962838 -9 6.86155e-007 -3.19779e-009 -30.104 -25.4315 -33.5463 0.575 -51.4311 3.90177 -1.95776 49.0236 12.3155 -7.46079e-007 -43.5882 -3.90177 -8.51276 -3.36619 0.562513 
54.0315 86.6405 -3.29598 4.01396 -2.83531 35.9147 1.23236e-007 14.8421 1.27321e-009 -2.82679 14.3942 -5.61518 0.51659 29.8236 6.51843 9.23109 -16.542 -14.9996 1.16803e-007 7.47049 6.44171e-007 -3.1484 18.706 -10.5289 6.64893 27.3161 3.27471 -2.94784 5.93879 -4.20517 10.8584 2.41798 -0.945791 -26.0363 -23.4768 -58.9609 3.77631 -24.5904 -1.70468 29.5459 -14.7271 -24.8296 1.01026 -21.1231 1.74131 18.8951 -1.08934 2.12355 -6.11406 27.2248 4.23427 -1.96452 7.32629 3.42623 -10.4566 2.3285 -0.910794 -51.2719 -65.4597 -57.7193 -3.86856 -25.191 -1.74633 14.2248 -59.2001 89.9885 -1.04759 -20.6242 1.75213 -45.471 22.6447 2.38893 9 -3.38008e-006 -5.23432e-009 16.1543 -14.4266 22.6656 -0.575 -51.431 3.90177 0.232581 58.8232 -17.1619 2.13082e-007 -43.5882 -3.90177 11.2856 -21.5624 0.933275 -9 6.86155e-007 -3.19777e-009 -29.9676 -25.4016 -33.497 0.575 -51.4311 3.90177 -1.831 48.9097 12.3622 -7.46079e-007 -43.5882 -3.90177 -8.5573 -3.3978 0.563285 
53.9762 86.6847 -3.27145 4.04384 -2.72151 35.661 1.23236e-007 14.8421 1.27321e-009 -2.93168 14.3851 -5.50346 0.51659 29.8236 6.51843 9.11832 -16.7874 -14.8476 1.16803e-007 7.47049 6.44171e-007 -3.02087 18.7653 -10.4655 6.64893 27.3161 3.27471 -2.94784 5.93879 -4.20517 10.8584 2.41798 -0.945791 -26.0181 -23.6186 -58.7981 3.77631 -24.5904 -1.70468 29.4314 -14.7661 -24.8552 1.01026 -21.1231 1.74131 18.6481 -0.595446 2.04243 -6.11406 27.2248 4.23427 -1.96452 7.32629 3.42623 -10.4566 2.3285 -0.910794 -51.3465 -65.3342 -57.7414 -3.86856 -25.191 -1.74633 14.833 -59.5076 90.4881 -1.04759 -20.6242 1.75213 -45.1654 22.5808 2.33804 9 -3.38008e-006 -5.23434e-009 16.0669 -14.431 22.6474 -0.575 -51.431 3.90177 0.128378 58.7448 -16.8895 2.13082e-007 -43.5882 -3.90177 11.1696 -21.3639 0.902826 -9 6.86155e-007 -3.19775e-009 -29.982 -25.5531 -33.4928 0.575 -51.4311 3.90177 -1.78686 48.8565 12.4678 -7.46079e-007 -43.5882 -3.90177 -8.64049 -3.48182 0.563227 
53.9146 86.6961 -3.22595 4.04708 -2.5058 35.4265 1.23236e-007 14.8421 1.27321e-009 -3.06967 14.3262 -5.40719 0.51659 29.8236 6.51843 8.98113 -16.9256 -14.7068 1.16803e-007 7.47049 6.44171e-007 -2.90076 18.8198 -10.4082 6.64893 27.3161 3.27471 -2.94784 5.93879 -4.20517 10.8584 2.41798 -0.945791 -26.0402 -23.7806 -58.5715 3.77631 -24.5904 -1.70468 29.4029 -14.7837 -25.1384 1.01026 -21.1231 1.74131 18.8281 -0.64585 2.07158 -6.11406 27.2248 4.23427 -1.96452 7.32629 3.42623 -10.4566 2.3285 -0.910794 -51.5488 -65.1492 -57.7328 -3.86856 -25.191 -1.74633 15.6127 -59.9339 91.1888 -1.04759 -20.6242 1.75213 -45.1734 22.5945 2.3438 9 -3.38008e-006 -5.23436e-009 16.0174 -14.5195 22.706 -0.575 -51.431 3.90177 -0.069681 58.7144 -16.6035 2.13082e-007 -43.5882 -3.90177 11.0571 -21.2056 0.877125 -9 6.86154e-007 -3.19773e-009 -30.0725 -25.8349 -33.5443 0.575 -51.4311 3.90177 -1.80218 48.9001 12.5147 -7.46079e-007 -43.5882 -3.90177 -8.67709 -3.53521 0.562139 
53.83 86.7112 -3.13266 4.00957 -2.53465 35.4485 1.23236e-007 14.8421 1.27321e-009 -3.14415 14.5324 -5.43218 0.51659 29.8236 6.51843 9.03108 -17.2871 -14.6063 1.16803e-007 7.47049 6.44171e-007 -2.78822 19.101 -10.3543 6.64893 27.3161 3.27471 -2.94784 5.93879 -4.20517 10.8584 2.41798 -0.945791 -26.1022 -23.9476 -58.5967 3.77631 -24.5904 -1.70468 29.4394 -14.7694 -25.0699 1.01026 -21.1231 1.74131 19.1898 -0.846504 2.13887 -6.11406 27.2248 4.23427 -1.96452 7.32629 3.42623 -10.4566 2.3285 -0.910794 -51.9389 -64.7628 -58.1364 -3.86856 -25.191 -1.74633 16.6809 -60.4723 91.9833 -1.04759 -20.6242 1.75213 -45.1957 22.7832 2.41471 9 -3.38008e-006 -5.23438e-009 16.1675 -14.4967 22.7904 -0.575 -51.431 3.90177 -0.0191906 58.6859 -16.7249 2.13082e-007 -43.5882 -3.90177 11.0305 -21.1297 0.867342 -9 6.86154e-007 -3.19771e-009 -29.9659 -25.8213 -33.5359 0.575 -51.4311 3.90177 -1.7739 48.9435 12.3944 -7.46079e-007 -43.5882 -3.90177 -8.68813 -3.62378 0.557397 
53.7695 86.7237 -3.02899 4.06014 -2.61416 35.5131 1.23236e-007 14.8421 1.27321e-009 -3.41645 14.6778 -5.46279 0.51659 29.8236 6.51843 9.27369 -17.4975 -14.5682 1.16803e-007 7.47049 6.44171e-007 -2.60104 19.3307 -10.3399 6.64893 27.3161 3.27471 -2.94784 5.93879 -4.20517 10.8584 2.41798 -0.945791 -26.0632 -24.1091 -58.4768 3.77631 -24.5904 -1.70468 29.3755 -14.793 -25.1617 1.01026 -21.1231 1.74131 18.9151 -0.731769 2.09079 -6.11406 27.2248 4.23427 -1.96452 7.32629 3.42623 -10.4566 2.3285 -0.910794 -52.0208 -64.44 -58.3447 -3.86856 -25.191 -1.74633 16.973 -60.5889 92.1498 -1.04759 -20.6242 1.75213 -45.2641 22.8404 2.4418 9 -3.38008e-006 -5.2344e-009 16.2539 -14.3531 22.8354 -0.575 -51.431 3.90177 0.0289741 58.591 -16.8305 2.13082e-007 -43.5882 -3.90177 11.031 -21.0859 0.863132 -9 6.86154e-007 -3.19768e-009 -29.8944 -25.6903 -33.5179 0.575 -51.4311 3.90177 -1.76302 48.9929 12.3039 -7.46079e-007 -43.5882 -3.90177 -8.73579 -3.78877 0.549985 
53.6898 86.7429 -2.90659 4.10519 -2.64905 35.6281 1.23236e-007 14.8421 1.27321e-009 -3.50892 14.7497 -5.66405 0.51659 29.8236 6.51843 9.29097 -17.4621 -14.5094 1.16803e-007 7.47049 6.44171e-007 -2.33941 19.2244 -10.3719 6.64893 27.3161 3.27471 -2.94784 5.93879 -4.20517 10.8584 2.41798 -0.945791 -25.9907 -24.2449 -58.208 3.77631 -24.5904 -1.70468 29.3152 -14.8172 -25.3429 1.01026 -21.1231 1.74131 19.1691 -0.634859 2.11432 -6.11406 27.2248 4.23427 -1.96452 7.32629 3.42623 -10.4566 2.3285 -0.910794 -51.7375 -64.3636 -58.1465 -3.86856 -25.191 -1.74633 17.3998 -60.7956 92.4537 -1.04759 -20.6242 1.75213 -45.0801 22.5196 2.30858 9 -3.38008e-006 -5.23442e-009 16.3453 -14.2848 22.8741 -0.575 -51.431 3.90177 0.0735799 58.5358 -16.9816 2.13082e-007 -43.5882 -3.90177 10.9289 -20.8568 0.832126 -9 6.86154e-007 -3.19765e-009 -29.8342 -25.5712 -33.5245 0.575 -51.4311 3.90177 -1.76664 49.053 12.1484 -7.46079e-007 -43.5882 -3.90177 -8.79819 -4.01583 0.539467 
53.5938 86.7786 -2.8045 4.21246 -2.70911 35.8697 1.23236e-007 14.8421 1.27321e-009 -3.49039 14.8758 -5.93941 0.51659 29.8236 6.51843 9.10684 -17.3833 -14.4583 1.16803e-007 7.47049 6.44171e-007 -2.07916 19.0893 -10.4462 6.64893 27.3161 3.27471 -2.94784 5.93879 -4.20517 10.8584 2.41798 -0.945791 -25.9419 -24.3355 -57.9192 3.77631 -24.5904 -1.70468 29.2995 -14.8224 -25.3633 1.01026 -21.1231 1.74131 19.4102 -0.53026 2.13537 -6.11406 27.2248 4.23427 -1.96452 7.32629 3.42623 -10.4566 2.3285 -0.910794 -51.4626 -64.4047 -57.9044 -3.86856 -25.191 -1.74633 17.7968 -61.0277 92.6178 -1.04759 -20.6242 1.75213 -44.9331 22.2874 2.21091 9 -3.38008e-006 -5.23444e-009 16.3196 -14.2277 22.7526 -0.575 -51.431 3.90177 0.232705 58.4521 -17.2353 2.13082e-007 -43.5882 -3.90177 10.8184 -20.6018 0.798288 -9 6.86154e-007 -3.19762e-009 -29.7946 -25.3844 -33.514 0.575 -51.4311 3.90177 -1.83664 49.1047 11.9678 -7.46079e-007 -43.5882 -3.90177 -8.80132 -4.1393 0.531976 
